<svg width="78" height="44" viewBox="0 0 78 44" fill="none" xmlns="http://www.w3.org/2000/svg">
<path d="M35.3045 29.6344C35.3484 29.6344 35.3484 29.6344 35.3922 29.649C36.0641 29.7364 36.7214 29.853 37.218 30.0861C37.6854 30.2901 37.963 30.5523 38.2113 31.0185C38.5911 31.7179 38.6203 32.694 38.2697 33.4371C38.0068 33.9907 37.4517 34.457 36.9405 34.7046C36.4147 34.9669 35.8888 35.0834 35.2899 35.1563C34.2383 35.2728 33.0989 35.0543 32.1641 34.6027C31.609 34.3258 30.9225 33.8596 30.572 33.2623C30.3236 32.8252 30.3236 32.2424 30.6304 31.8199C31.127 31.1497 32.1787 31.004 32.9675 31.0331C33.5663 31.0623 34.6618 31.2371 35.2315 31.4411C35.3922 31.4993 35.9765 31.7325 36.0787 31.8344C36.1517 31.9073 36.1956 32.0093 36.1663 32.1113C36.0349 32.5046 35.0562 32.7232 34.7787 32.7669C34.0191 32.8834 33.6394 32.5921 32.7776 32.257C32.5585 32.1695 32.2809 32.0821 32.0618 32.0676C31.6675 32.0238 31.2 32.1404 31.127 32.5629C31.0832 32.7815 31.3461 32.9854 31.536 33.0728C31.9888 33.2768 32.3686 33.3351 32.8214 33.3497C34.1506 33.3642 35.6551 33.1457 36.7506 32.3735C36.8967 32.2715 37.0427 32.1113 37.0427 31.9219C37.0427 31.5285 36.3562 31.2808 36.3562 31.2808C35.6259 30.9748 34.2529 30.8291 33.5663 30.7709C32.836 30.7126 31.6675 30.6106 31.3899 30.5669C31.0978 30.5232 30.7911 30.4649 30.5427 30.3629C30.2944 30.2464 30.0461 29.9987 29.9731 29.7219C29.8416 29.2265 30.0023 28.6146 30.2798 28.2066C31.0102 27.1576 32.7191 26.7642 34.0045 26.604C35.2461 26.4437 37.2472 26.4583 38.4596 27.0993C38.6495 27.2013 38.7371 27.2887 38.7079 27.4927C38.6349 27.8715 38.3427 28.1046 38.0068 28.2212C37.6416 28.3377 36.8967 28.3815 36.5753 28.396C35.1147 28.4834 33.3472 28.4397 31.945 28.8185C31.8427 28.8477 31.6529 28.906 31.5798 28.9642C31.3607 29.1974 31.9888 29.2702 32.1203 29.2993C32.1641 29.3139 32.1641 29.3139 32.2079 29.3139L35.3045 29.6344ZM26.5843 23.1219C26.5843 23.1219 26.818 22.7722 27.0225 22.4954C27.3877 22 28.045 21.3152 28.5416 20.8927C28.6877 20.7616 28.8776 20.6159 28.8776 20.6159C28.8776 20.6159 28.6 20.645 28.4394 20.6742C28.0596 20.747 27.5191 21.1113 27.2416 21.3444C26.7888 21.7377 26.2922 22.3642 26.5113 22.9179C26.5405 23.0199 26.5843 23.1219 26.5843 23.1219ZM29.1113 23.7921C29.827 23.7483 30.4989 23.5298 31.127 23.1947C31.7405 22.8596 32.6461 22.1894 32.5439 21.4026C32.5147 21.155 32.354 20.951 32.1349 20.8636C31.8574 20.747 31.7259 20.7616 31.3753 20.8636C31.127 20.9364 31.0102 20.9801 30.7618 21.1258C30.0607 21.5338 29.0529 22.4079 28.5124 23.1073C28.3809 23.2676 28.2641 23.457 28.1618 23.5881C28.1034 23.6609 28.045 23.7338 28.0596 23.7629C28.0888 23.8212 28.8338 23.8212 29.1113 23.7921ZM27.2854 25.1325C27.2124 25.2053 27.1394 25.3947 27.0517 25.5404C27.0079 25.6132 26.9349 25.7007 26.8765 25.7444C26.6866 25.8755 26.5259 25.8901 26.3506 25.7298C26.1023 25.5113 25.9562 25.1616 25.9416 24.8265C25.9416 24.6808 25.9562 24.5205 25.927 24.3894C25.8832 24.1854 25.6787 23.9669 25.5618 23.7629C25.4304 23.5298 25.3281 23.1219 25.3135 22.8596C25.2697 22.0291 25.7079 21.2715 26.263 20.6742C26.8326 20.0623 27.5776 19.5669 28.3956 19.2172C29.1551 18.8967 30.2798 18.6781 31.127 18.9695C31.4045 19.057 31.7843 19.2901 31.9742 19.5378C32.018 19.5815 32.0472 19.6397 32.0911 19.6689C32.1349 19.698 32.2225 19.698 32.3102 19.7126C32.5731 19.7563 32.9675 19.9603 33.1281 20.0914C33.4495 20.3682 33.6248 20.6305 33.6978 21.0093C33.8585 21.7669 33.4203 22.6119 32.9236 23.1219C32.0618 23.996 31.2147 24.6079 30.1191 25.045C29.6371 25.2344 28.8922 25.4093 28.3371 25.3656C28.1618 25.351 27.9866 25.3073 27.8259 25.2927C27.7383 25.2781 27.4315 25.2053 27.4023 25.1907C27.3439 25.147 27.3 25.1325 27.2854 25.1325ZM28.2641 26.8225C28.2933 26.8225 28.3517 26.8371 28.3956 26.8662C28.7753 27.0119 28.936 27.3616 29.0383 27.755C29.2574 28.6583 29.345 30.6689 29.3888 31.4556C29.418 32.0384 29.4326 32.6212 29.4618 33.204C29.4765 33.6993 29.5203 34.355 29.418 34.8066C29.3742 34.9669 29.272 35.1709 29.1113 35.2583C28.9214 35.3748 28.5124 35.3894 28.2787 35.3311C27.709 35.2146 27.5338 34.8503 27.4461 34.2967C27.2562 32.9709 27.3439 30.3629 27.4607 29.2702C27.5045 28.906 27.636 27.7404 27.8259 27.2596C27.8843 27.1139 28.0304 26.7788 28.2641 26.8225ZM11.1304 29.0371C11.1304 29.0371 10.2978 29.0954 9.71353 29.1536C8.9832 29.2265 7.59556 29.4742 6.80679 29.751C6.57308 29.8384 6.07645 30.0424 6.04724 30.2901C6.00342 30.5377 6.16409 30.7417 6.33938 30.9457C6.44162 31.0623 7.01129 31.6159 7.17196 31.747C7.84387 32.3152 9.2169 33.1748 10.2248 33.5974C10.5753 33.743 11.145 33.947 11.145 33.947C11.145 33.947 11.1012 32.3152 11.1158 30.7126C11.1158 29.8676 11.1304 29.0371 11.1304 29.0371ZM26.4967 29.6781C26.5405 30.1152 26.4383 30.9457 26.409 31.0477C26.3798 31.2954 26.1899 31.8781 26.1461 31.951C25.9854 32.3007 25.8394 32.5921 25.6787 32.8834C25.4012 33.3788 24.7439 34.1656 24.3641 34.5007C22.918 35.7391 20.6832 36.453 18.7697 36.6861C17.4697 36.8464 15.9798 36.8172 14.5922 36.5695C14.1248 36.4821 13.409 36.3219 13.409 36.3219C13.409 36.3219 13.409 36.5987 13.3944 36.8027C13.3798 36.8901 13.3214 37.1378 13.2776 37.2106C13.1753 37.4146 13.0147 37.5166 12.7809 37.5748C12.4888 37.6331 12.1821 37.6477 11.9192 37.5311C11.4809 37.3417 11.3203 36.9338 11.2472 36.4676C11.1888 36.0887 11.1158 35.4331 11.1158 35.4331C11.1158 35.4331 10.7944 35.2728 10.5169 35.1417C9.68432 34.7338 8.88095 34.2238 8.17982 33.7139C7.98994 33.5682 7.15735 32.8834 6.96747 32.7086C6.45623 32.2278 5.98881 31.7325 5.63825 31.1205C5.36072 30.6397 5.28769 30.2027 5.49218 29.6927C5.78432 28.9788 6.80679 28.4397 7.50791 28.1338C8.01915 27.9007 9.6405 27.3762 10.2978 27.2887C10.6192 27.245 11.1012 27.1576 11.1304 27.143C11.145 27.1285 11.145 27.1285 11.1596 27.1139C11.1742 27.0993 11.2034 26.3854 11.1888 26.1232C11.1888 25.8609 11.3787 24.2 11.4371 23.8358C11.4663 23.6464 11.6124 22.9033 11.7585 22.7139C11.8607 22.5828 12.0214 22.5974 12.1675 22.6848C12.927 23.1656 13.1607 24.8119 13.2192 25.6424C13.2484 26.1523 13.2776 26.9245 13.2776 26.9245C13.2776 26.9245 14.154 26.8954 14.6944 26.9099C15.2203 26.9245 15.8045 27.0119 16.345 27.0848C17.0461 27.2013 18.4045 27.4927 19.1787 27.8861C19.8214 28.2066 20.4203 28.7603 20.6248 29.343C20.8 29.8676 20.7854 30.2464 20.5079 30.7272C20.2012 31.2662 19.6169 31.6742 19.018 31.7033C18.8427 31.7179 18.1708 31.6305 17.9663 31.4702C17.8933 31.4119 17.8933 31.2954 17.9517 31.2225C17.9663 31.1934 18.2877 31.0331 18.463 30.9311C18.5506 30.8874 18.6383 30.8291 18.6967 30.7563C18.8427 30.6252 18.9888 30.4795 18.9742 30.3046C18.9596 30.0861 18.7113 29.9404 18.4922 29.853C17.4259 29.4305 15.2933 29.0808 14.2708 29.0225C13.8618 28.9934 13.2922 28.9788 13.2922 28.9788L13.409 34.6464C13.409 34.6464 13.8765 34.7338 14.2562 34.7921C14.4753 34.8212 15.3809 34.9086 15.6147 34.9086C17.4551 34.9523 19.5 34.7921 21.1798 34.0053C21.9248 33.6556 22.5967 33.2331 23.1079 32.6358C23.7798 31.8636 24.145 30.8 24.0427 29.6927C23.9405 28.4834 23.0933 27.0556 22.4068 26.1815C20.6102 23.8795 17.5281 21.9709 14.8113 20.8636C12.036 19.7272 9.30454 19.0715 6.36859 18.9695C5.60904 18.9404 3.95848 18.9841 3.12589 19.2172C3.00904 19.2464 2.89218 19.2901 2.77533 19.3192C2.68769 19.3338 2.55623 19.3921 2.51241 19.4358C2.4978 19.4503 2.46859 19.4795 2.46859 19.4795C2.46859 19.4795 2.52702 19.5086 2.57084 19.5232C2.65848 19.5669 3.03825 19.5815 3.22814 19.6252C3.40342 19.6543 3.5787 19.7417 3.65173 19.8728C3.72477 19.9894 3.72477 20.0914 3.65173 20.1934C3.46185 20.4265 2.74612 20.3828 2.43938 20.3391C2.11803 20.2808 1.70904 20.1934 1.636 19.902C1.54836 19.5669 1.70904 19.2464 1.88432 18.9404C2.23488 18.3285 2.7169 18.0225 3.44724 17.8185C4.46971 17.5417 5.76971 17.3377 6.73376 17.3086C8.92477 17.2212 10.9989 17.6146 13.1315 18.2556C14.3439 18.6199 15.936 19.2318 17.1045 19.8C17.9371 20.2079 19.2663 20.9364 19.9967 21.4318C20.2304 21.5921 21.6034 22.5828 21.8079 22.7576C22.2461 23.1219 22.8304 23.6318 23.254 24.0543C24.072 24.8556 25.0798 26.0795 25.5618 27.0702C25.6787 27.3033 25.7663 27.5364 25.927 27.7987C25.9854 27.8861 26.2045 28.4397 26.2338 28.6C26.2776 28.7603 26.3214 28.9934 26.336 29.0079C26.409 29.0225 26.5113 29.4887 26.4967 29.6781ZM54.0888 28.4252C53.0663 28.6583 50.3641 28.7894 50.3641 28.7894L50.0281 29.853C50.0281 29.853 51.372 29.7364 52.3652 29.8384C52.3652 29.8384 52.6866 29.7947 52.7158 30.2027C52.7304 30.5669 52.6866 30.9748 52.6866 30.9748C52.6866 30.9748 52.672 31.2225 52.3214 31.2808C51.9562 31.3391 49.4147 31.4411 49.4147 31.4411L49.0057 32.8252C49.0057 32.8252 48.8596 33.1457 49.1956 33.0583C49.5169 32.9709 52.1753 32.4755 52.5259 32.5483C52.8911 32.6358 53.3147 33.1311 53.1832 33.5828C53.0371 34.1364 50.3787 35.8265 48.772 35.7099C48.772 35.7099 47.9248 35.7682 47.209 34.6172C46.5371 33.5245 47.4573 31.4556 47.4573 31.4556C47.4573 31.4556 47.0338 30.494 47.3405 30.1589C47.3405 30.1589 47.5158 29.9987 48.0562 29.955L48.7135 28.6146C48.7135 28.6146 47.9686 28.6583 47.5304 28.1192C47.1214 27.6093 47.0922 27.3616 47.3989 27.2305C47.7349 27.0702 50.8315 26.502 52.9495 26.5748C52.9495 26.5748 53.6944 26.502 54.3225 27.7841C54.3079 27.7841 54.6147 28.3086 54.0888 28.4252ZM46.0989 33.5974C45.8214 34.2384 45.1057 34.9232 44.2147 34.5007C43.3383 34.0781 41.9214 31.2079 41.9214 31.2079C41.9214 31.2079 41.3809 30.1444 41.2787 30.1589C41.2787 30.1589 41.1618 29.955 41.0888 31.1205C41.0158 32.2861 41.1034 34.5589 40.636 34.9086C40.1978 35.2729 39.6574 35.1272 39.3798 34.7046C39.1315 34.2967 39.0293 33.306 39.1607 31.5868C39.3214 29.8676 39.7304 28.0318 40.2416 27.4636C40.7529 26.8954 41.1618 27.3033 41.3225 27.4636C41.3225 27.4636 42.009 28.0901 43.1338 29.8967L43.3383 30.2318C43.3383 30.2318 44.3607 31.951 44.4776 31.951C44.4776 31.951 44.5652 32.0238 44.6383 31.9656C44.7405 31.9364 44.6967 31.3828 44.6967 31.3828C44.6967 31.3828 44.4776 29.5033 43.5427 26.3417C43.5427 26.3417 43.3967 25.9483 43.4989 25.5695C43.6012 25.1907 43.9663 25.3656 43.9663 25.3656C43.9663 25.3656 45.4124 26.094 46.1281 28.4543C46.8439 30.8146 46.3618 32.9563 46.0989 33.5974ZM61.7135 32.1841C61.0562 33.3351 59.1866 35.7391 56.7034 35.1709C55.8854 37.1523 55.1989 39.1629 54.8045 42.1497C54.8045 42.1497 54.7169 42.7325 54.2349 42.5285C53.7529 42.3536 52.9641 41.5669 52.8034 40.4596C52.6281 39.0027 53.2854 36.555 54.6 33.743C54.2203 33.1166 53.9573 32.2278 54.1765 30.9457C54.1765 30.9457 54.5124 28.5854 56.8933 26.4583C56.8933 26.4583 57.1854 26.2106 57.3461 26.2834C57.5214 26.3563 57.4484 27.1285 57.3023 27.5073C57.1562 27.8861 56.0899 29.7073 56.0899 29.7073C56.0899 29.7073 55.4326 30.9457 55.6079 31.9219C56.8495 30.0132 59.6978 26.1523 61.4506 27.3616C62.0349 27.7841 62.3124 28.702 62.3124 29.6927C62.3124 30.5669 62.1079 31.4848 61.7135 32.1841ZM61.2023 29.1536C61.2023 29.1536 61.1 28.396 60.3551 29.2265C59.7124 29.9404 58.5585 31.2662 57.6236 33.0583C58.6023 32.9417 59.5371 32.4172 59.8293 32.155C60.2967 31.747 61.3776 30.6252 61.2023 29.1536ZM75.3854 28.9788H70.8427C70.7551 27.4344 70.5652 25.9338 70.2731 24.3894C70.2439 24.2291 70.0978 24.1126 69.9371 24.1126H68.8854C68.7978 24.1126 68.7102 24.1563 68.6517 24.2291C68.5933 24.302 68.5641 24.3894 68.5933 24.4914C68.8854 25.9921 69.0753 27.4636 69.1776 28.9934H64.8102C64.6057 28.9934 64.445 29.1536 64.445 29.3576V30.3046C64.445 30.5086 64.6057 30.6689 64.8102 30.6689H69.2506C69.2506 30.902 69.2506 31.106 69.2506 31.3099C69.2506 32.6649 69.1922 33.7868 69.0607 35.0543C69.0461 35.1563 69.0753 35.2437 69.1484 35.3166C69.2068 35.3894 69.309 35.4331 69.3967 35.4331H70.3753C70.5652 35.4331 70.7259 35.2874 70.7405 35.098C70.872 33.8305 70.9304 32.694 70.9304 31.3099C70.9304 31.1205 70.9304 30.902 70.9304 30.6689H75.4147C75.6191 30.6689 75.7798 30.5086 75.7798 30.3046V29.3576C75.7506 29.1391 75.5899 28.9788 75.3854 28.9788Z" fill="white"/>
<path d="M69.645 21.898C67.3371 16.2158 63.4079 11.3642 58.3247 7.89664C53.1101 4.3271 47.0045 2.44763 40.6506 2.44763C30.1483 2.44763 20.4202 7.64896 14.6068 16.3615C14.5483 16.449 14.5337 16.5801 14.5629 16.6821C14.6068 16.7986 14.6798 16.8715 14.7967 16.9152L15.6146 17.192C15.6585 17.2066 15.7169 17.2211 15.7607 17.2211C15.9068 17.2211 16.0528 17.1483 16.1405 17.0172C18.8135 13.1125 22.4214 9.84896 26.5843 7.60525C30.8787 5.28869 35.7573 4.05028 40.6652 4.05028C46.6101 4.05028 52.336 5.79863 57.2292 9.10591C62.0056 12.3258 65.7304 16.8278 67.9652 22.1165C68.0382 22.2768 68.1843 22.3788 68.3596 22.3788H69.3382C69.4551 22.3788 69.5573 22.3205 69.6158 22.2331C69.6888 22.1165 69.6888 21.9999 69.645 21.898Z" fill="white"/>
</svg>
