<svg width="106" height="30" viewBox="0 0 106 30" fill="none" xmlns="http://www.w3.org/2000/svg">
<g clip-path="url(#clip0_161_44)">
<path d="M93.1486 13.7704V6.43542H98.296V13.7662H106V18.6548H98.296V25.9688H93.1486V18.6548H85.4233V13.7704H93.1486Z" fill="white"/>
<path d="M70.1635 8.43631H73.4029C75.3533 8.43631 76.5999 9.43673 76.5999 11.1812C76.5999 13.0811 75.3533 14.3169 73.4029 14.3169H70.1635V8.43631ZM75.7391 18.1421C79.093 17.7175 81.8617 14.8592 81.8617 11.2232C81.8617 6.50693 78.6223 3.9176 73.4029 3.9176H64.978V27.6587H70.1678V18.1421L76.6041 27.6503H82.6079L75.7391 18.1421V18.1421Z" fill="white"/>
<path d="M33.8141 8.59189V3.91345H18.0159V8.59189H23.2819V27.6503H28.5523V8.59189H33.8141Z" fill="white"/>
<path d="M8.268 12.6523C6.70768 11.9546 6.11832 11.1853 6.11832 10.1807C6.11832 9.01635 7.09352 8.04956 8.65384 8.09159C10.0149 8.12522 11.0749 8.86082 11.8169 10.6053L16.3028 8.62963C15.0605 5.46444 12.525 3.61072 8.43336 3.61072C4.10432 3.61072 0.90736 6.43543 0.90736 10.2185C0.90736 12.8079 2.19632 14.8549 5.2364 16.3682L8.59024 18.0327C10.4558 18.9659 11.359 19.6553 11.359 21.0046C11.359 22.4716 10.1548 23.5182 8.59024 23.5182C6.9112 23.5182 5.39328 22.5851 4.68944 20.5044L0 21.8579C1.08968 25.7671 4.32904 28.0496 8.5436 28.0496C13.1058 28.0496 16.6166 25.1492 16.6166 20.9752C16.6166 17.7637 14.8654 15.6368 11.5031 14.1361L8.268 12.6523Z" fill="white"/>
<path d="M63.5702 11.4502H51.4184L47.6575 0L43.8966 11.4502H31.749L41.4968 18.5414C41.4968 18.5414 46.2625 15.4309 52.0374 14.2581C43.5193 20.4918 38.8934 26.6751 38.8934 26.6751L37.8292 30L47.6575 22.9256L57.4901 30L53.7377 18.5414L63.5702 11.4502V11.4502Z" fill="url(#paint0_linear_161_44)"/>
</g>
<defs>
<linearGradient id="paint0_linear_161_44" x1="36.5441" y1="28.7262" x2="58.6431" y2="6.45547" gradientUnits="userSpaceOnUse">
<stop offset="0.28" stop-color="#4E4E4E"/>
<stop offset="0.78" stop-color="#8B8B8B"/>
</linearGradient>
<clipPath id="clip0_161_44">
<rect width="106" height="30" fill="white"/>
</clipPath>
</defs>
</svg>
