<svg width="57" height="57" viewBox="0 0 57 57" fill="none" xmlns="http://www.w3.org/2000/svg">
<path fill-rule="evenodd" clip-rule="evenodd" d="M45.5751 45.243C45.3351 45.241 45.0891 45.298 44.8601 45.405C44.6001 45.509 44.3371 45.628 44.0901 45.733L43.7231 45.885L43.2461 46.074V46.08C38.0781 48.176 32.6501 49.404 27.6271 49.512C27.4431 49.518 27.2581 49.518 27.0761 49.518C19.1781 49.522 12.7331 45.858 6.22806 42.248C6.00006 42.129 5.77106 42.066 5.54206 42.066C5.24806 42.066 4.94906 42.175 4.73106 42.38C4.51206 42.585 4.38206 42.884 4.38406 43.187C4.38306 43.582 4.59606 43.943 4.89106 44.177C10.9951 49.476 17.6841 54.4 26.6791 54.404C26.8551 54.404 27.0331 54.4 27.2141 54.396C32.9351 54.267 39.4091 52.335 44.4311 49.179L44.4601 49.159C45.1181 48.766 45.7761 48.319 46.3961 47.823C46.7831 47.536 47.0481 47.091 47.0441 46.626C47.0321 45.802 46.3311 45.243 45.5751 45.243Z" fill="white"/>
<path fill-rule="evenodd" clip-rule="evenodd" d="M52.5439 42.3171V42.3151C52.5239 41.8111 52.4169 41.4301 52.2079 41.1121L52.1869 41.0831L52.1619 41.0521C51.9489 40.8201 51.7459 40.7321 51.5229 40.6341C50.8649 40.3801 49.9059 40.2451 48.7499 40.2411C47.9199 40.2411 47.0019 40.3191 46.0839 40.5201L46.0819 40.4591L45.1539 40.7681L45.1379 40.7761L44.6149 40.9461V40.9691C44.0019 41.2231 43.4429 41.5411 42.9239 41.9161C42.6039 42.1581 42.3339 42.4771 42.3189 42.9671C42.3109 43.2331 42.4459 43.5391 42.6729 43.7211C42.8959 43.9031 43.1569 43.9631 43.3859 43.9631C43.4409 43.9631 43.4909 43.9611 43.5359 43.9531L43.5809 43.9491L43.6159 43.9431C44.0689 43.8471 44.7289 43.7831 45.5009 43.6731C46.1629 43.6011 46.8659 43.5461 47.4759 43.5461C47.9079 43.5441 48.2939 43.5731 48.5599 43.6321C48.6929 43.6591 48.7919 43.6941 48.8489 43.7221C48.8669 43.7301 48.8799 43.7381 48.8879 43.7431C48.8999 43.7801 48.9169 43.8741 48.9149 44.0091C48.9209 44.5191 48.7019 45.4641 48.4069 46.3861C48.1179 47.3101 47.7659 48.2361 47.5319 48.8511C47.4769 48.9941 47.4419 49.1481 47.4419 49.3181C47.4379 49.5661 47.5379 49.8651 47.7529 50.0641C47.9619 50.2631 48.2319 50.3411 48.4599 50.3411H48.4699C48.8119 50.3371 49.1009 50.2021 49.3509 50.0071C51.7029 47.8921 52.5189 44.5191 52.5519 42.6181L52.5439 42.3171Z" fill="white"/>
<path fill-rule="evenodd" clip-rule="evenodd" d="M31.0461 19.657C29.6631 19.761 28.0691 19.866 26.4741 20.077C24.0311 20.399 21.585 20.821 19.567 21.78C15.6351 23.374 12.9771 26.775 12.9771 31.769C12.9771 38.042 17.0151 41.23 22.1181 41.23C23.8171 41.23 25.2021 41.015 26.4731 40.699C28.4941 40.06 30.194 38.892 32.215 36.763C33.383 38.359 33.7031 39.105 35.7211 40.804C36.2521 41.015 36.7831 41.015 37.2071 40.699C38.4841 39.635 40.717 37.72 41.885 36.66C42.418 36.234 42.3111 35.596 41.9901 35.068C40.8241 33.578 39.6521 32.302 39.6521 29.431V19.866C39.6521 15.827 39.972 12.106 36.996 9.34604C34.553 7.11604 30.7261 6.26404 27.7501 6.26404H26.4731C21.055 6.57804 15.3141 8.91804 14.0391 15.616C13.8261 16.468 14.4651 16.784 14.8911 16.889L20.8411 17.633C21.4821 17.528 21.7981 16.994 21.9051 16.467C22.4361 14.127 24.3481 12.957 26.4731 12.744H26.901C28.176 12.744 29.5571 13.277 30.3011 14.34C31.1511 15.615 31.0451 17.317 31.0451 18.805V19.657H31.0461ZM29.8781 32.302C29.1341 33.786 27.8571 34.743 26.4741 35.068C26.2631 35.068 25.9451 35.173 25.6241 35.173C23.2881 35.173 21.9051 33.364 21.9051 30.708C21.9051 27.306 23.9251 25.712 26.4731 24.968C27.8561 24.65 29.4501 24.542 31.0451 24.542V25.819C31.0461 28.263 31.1511 30.175 29.8781 32.302Z" fill="white"/>
</svg>
