<svg width="57" height="57" viewBox="0 0 57 57" fill="none" xmlns="http://www.w3.org/2000/svg">
<path d="M41.7769 30.517C41.7149 24.285 46.8589 21.296 47.0889 21.145C44.1979 16.918 39.6939 16.338 38.0909 16.272C34.2609 15.883 30.6139 18.528 28.6709 18.528C26.7319 18.528 23.7299 16.329 20.5539 16.385C16.3759 16.447 12.5249 18.815 10.3749 22.555C6.03589 30.082 9.26489 41.237 13.4929 47.346C15.5599 50.332 18.0249 53.692 21.2589 53.569C24.3759 53.446 25.5519 51.553 29.3199 51.553C33.0879 51.553 34.1459 53.569 37.4429 53.506C40.7949 53.445 42.9199 50.463 44.9699 47.465C47.3429 43.996 48.3199 40.637 48.3779 40.467C48.3049 40.433 41.8439 37.958 41.7769 30.517Z" fill="white"/>
<path d="M35.582 12.229C37.297 10.147 38.459 7.25402 38.143 4.37402C35.668 4.47402 32.672 6.01902 30.895 8.09902C29.303 9.94502 27.911 12.884 28.284 15.712C31.045 15.926 33.861 14.307 35.582 12.229Z" fill="white"/>
</svg>
