<svg width="32" height="32" viewBox="0 0 32 32" fill="none" xmlns="http://www.w3.org/2000/svg">
<path d="M8.5 12V15C8.5 15.2652 8.60536 15.5196 8.79289 15.7071C8.98043 15.8946 9.23478 16 9.5 16C9.76522 16 10.0196 15.8946 10.2071 15.7071C10.3946 15.5196 10.5 15.2652 10.5 15V7C10.5 6.73478 10.3946 6.48043 10.2071 6.29289C10.0196 6.10536 9.76522 6 9.5 6C9.23478 6 8.98043 6.10536 8.79289 6.29289C8.60536 6.48043 8.5 6.73478 8.5 7V10H5.5V7C5.5 6.73478 5.39464 6.48043 5.20711 6.29289C5.01957 6.10536 4.76522 6 4.5 6C4.23478 6 3.98043 6.10536 3.79289 6.29289C3.60536 6.48043 3.5 6.73478 3.5 7V15C3.5 15.2652 3.60536 15.5196 3.79289 15.7071C3.98043 15.8946 4.23478 16 4.5 16C4.76522 16 5.01957 15.8946 5.20711 15.7071C5.39464 15.5196 5.5 15.2652 5.5 15V12H8.5Z" fill="white"/>
<path d="M12.5 16H15.5C16.2956 16 17.0587 15.6839 17.6213 15.1213C18.1839 14.5587 18.5 13.7956 18.5 13C18.4983 12.2613 18.2242 11.5491 17.73 11C18.2242 10.4509 18.4983 9.73873 18.5 9C18.5 8.20435 18.1839 7.44129 17.6213 6.87868C17.0587 6.31607 16.2956 6 15.5 6H12.5C12.2348 6 11.9804 6.10536 11.7929 6.29289C11.6054 6.48043 11.5 6.73478 11.5 7V15C11.5 15.2652 11.6054 15.5196 11.7929 15.7071C11.9804 15.8946 12.2348 16 12.5 16ZM13.5 8H15.5C15.7652 8 16.0196 8.10536 16.2071 8.29289C16.3946 8.48043 16.5 8.73478 16.5 9C16.5 9.26522 16.3946 9.51957 16.2071 9.70711C16.0196 9.89464 15.7652 10 15.5 10H13.5V8ZM13.5 12H15.5C15.7652 12 16.0196 12.1054 16.2071 12.2929C16.3946 12.4804 16.5 12.7348 16.5 13C16.5 13.2652 16.3946 13.5196 16.2071 13.7071C16.0196 13.8946 15.7652 14 15.5 14H13.5V12Z" fill="white"/>
<path d="M23.5 6C22.5886 6.00094 21.6948 6.25096 20.9152 6.72304C20.1356 7.19512 19.4999 7.87129 19.0767 8.67848C18.6536 9.48568 18.4591 10.3932 18.5143 11.3029C18.5695 12.2126 18.8723 13.0899 19.39 13.84C19.5398 14.0588 19.7705 14.2091 20.0311 14.2578C20.2918 14.3066 20.5612 14.2498 20.78 14.1C20.9924 13.944 21.1347 13.7105 21.1759 13.4502C21.2171 13.19 21.1539 12.9239 21 12.71C20.6184 12.1598 20.4318 11.4978 20.4699 10.8294C20.5081 10.1609 20.7687 9.52442 21.2104 9.02122C21.6521 8.51801 22.2494 8.17702 22.9072 8.05252C23.5651 7.92802 24.2457 8.02718 24.8407 8.3342C25.4357 8.64122 25.9109 9.13847 26.1907 9.74677C26.4704 10.3551 26.5386 11.0395 26.3844 11.691C26.2303 12.3426 25.8625 12.9238 25.3398 13.3423C24.8171 13.7607 24.1695 13.9922 23.5 14C23.2473 14.0003 22.9955 13.9701 22.75 13.91C22.6196 13.8649 22.4812 13.8473 22.3437 13.8583C22.2061 13.8693 22.0723 13.9086 21.9507 13.9739C21.8291 14.0391 21.7223 14.1288 21.637 14.2373C21.5518 14.3458 21.4899 14.4708 21.4553 14.6043C21.4207 14.7379 21.4141 14.8772 21.4359 15.0135C21.4578 15.1497 21.5076 15.28 21.5822 15.3961C21.6569 15.5121 21.7548 15.6115 21.8697 15.6879C21.9846 15.7643 22.1141 15.8161 22.25 15.84C22.6579 15.9478 23.0781 16.0016 23.5 16C24.8261 16 26.0978 15.4732 27.0355 14.5355C27.9732 13.5979 28.5 12.3261 28.5 11C28.5 9.67392 27.9732 8.40215 27.0355 7.46447C26.0978 6.52678 24.8261 6 23.5 6Z" fill="white"/>
<path d="M23.5 13C24.6046 13 25.5 12.1046 25.5 11C25.5 9.89543 24.6046 9 23.5 9C22.3954 9 21.5 9.89543 21.5 11C21.5 12.1046 22.3954 13 23.5 13Z" fill="white"/>
<path d="M20.4999 17C19.3473 16.9998 18.2299 17.3978 17.337 18.1267C16.4441 18.8556 15.8305 19.8707 15.5999 21H15.4999H11.4999C11.2347 21 10.9804 21.1054 10.7928 21.2929C10.6053 21.4805 10.4999 21.7348 10.4999 22C10.4999 22.2652 10.6053 22.5196 10.7928 22.7071C10.9804 22.8947 11.2347 23 11.4999 23H14.3299C14.1081 23.6245 13.6858 24.1579 13.1289 24.517C12.572 24.8761 11.9119 25.0408 11.2515 24.9852C10.5912 24.9297 9.96786 24.6571 9.47878 24.2099C8.98971 23.7628 8.66243 23.1664 8.54804 22.5137C8.43365 21.861 8.53858 21.1887 8.84645 20.6019C9.15433 20.0152 9.64782 19.5468 10.2499 19.27C10.852 18.9932 11.5288 18.9236 12.1746 19.0719C12.8204 19.2203 13.399 19.5783 13.8199 20.09C13.9878 20.2931 14.229 20.4217 14.4911 20.4479C14.7533 20.4741 15.0152 20.3958 15.2199 20.23C15.3219 20.1468 15.4065 20.0442 15.4687 19.9282C15.531 19.8122 15.5697 19.6851 15.5827 19.5541C15.5957 19.4231 15.5828 19.2908 15.5445 19.1648C15.5063 19.0389 15.4436 18.9217 15.3599 18.82C14.6747 17.9817 13.7359 17.3884 12.6846 17.1294C11.6333 16.8704 10.5263 16.9597 9.53005 17.3838C8.53382 17.8079 7.70218 18.5439 7.16015 19.4812C6.61813 20.4185 6.395 21.5065 6.52432 22.5815C6.65365 23.6564 7.12843 24.6604 7.87729 25.4424C8.62616 26.2244 9.60863 26.7422 10.677 26.918C11.7454 27.0937 12.842 26.9179 13.8019 26.4169C14.7618 25.916 15.5331 25.117 15.9999 24.14C16.3833 24.9496 16.9771 25.6412 17.7193 26.1428C18.4614 26.6443 19.3247 26.9372 20.2188 26.991C21.1129 27.0447 22.005 26.8573 22.8019 26.4483C23.5988 26.0393 24.2712 25.4237 24.7488 24.6659C25.2264 23.9082 25.4916 23.036 25.5168 22.1406C25.542 21.2453 25.3262 20.3596 24.892 19.5761C24.4578 18.7927 23.8211 18.1403 23.0484 17.6871C22.2758 17.2339 21.3956 16.9966 20.4999 17V17ZM20.4999 25C19.9066 25 19.3266 24.8241 18.8332 24.4944C18.3399 24.1648 17.9553 23.6963 17.7283 23.1481C17.5012 22.5999 17.4418 21.9967 17.5576 21.4148C17.6733 20.8328 17.959 20.2983 18.3786 19.8787C18.7982 19.4591 19.3327 19.1734 19.9146 19.0577C20.4966 18.9419 21.0998 19.0013 21.648 19.2284C22.1962 19.4555 22.6647 19.84 22.9943 20.3333C23.324 20.8267 23.4999 21.4067 23.4999 22C23.4999 22.7957 23.1839 23.5587 22.6212 24.1213C22.0586 24.684 21.2956 25 20.4999 25V25Z" fill="white"/>
<path d="M20.5 24C21.6046 24 22.5 23.1046 22.5 22C22.5 20.8954 21.6046 20 20.5 20C19.3954 20 18.5 20.8954 18.5 22C18.5 23.1046 19.3954 24 20.5 24Z" fill="white"/>
</svg>
