<svg width="32" height="32" viewBox="0 0 32 32" fill="none" xmlns="http://www.w3.org/2000/svg">
<path d="M23.9 29.42V29.35C23.9343 29.2534 23.9545 29.1524 23.96 29.05V3C23.96 2.73478 23.8546 2.48043 23.6671 2.29289C23.4796 2.10536 23.2252 2 22.96 2H17C16.7348 2 16.4804 2.10536 16.2929 2.29289C16.1054 2.48043 16 2.73478 16 3V8.32L13.94 2.66C13.8701 2.46673 13.7424 2.29968 13.5742 2.18159C13.406 2.06349 13.2055 2.00009 13 2H8C7.73478 2 7.48043 2.10536 7.29289 2.29289C7.10536 2.48043 7 2.73478 7 3V29C7 29.2652 7.10536 29.5196 7.29289 29.7071C7.48043 29.8946 7.73478 30 8 30C8.26522 30 8.51957 29.8946 8.70711 29.7071C8.89464 29.5196 9 29.2652 9 29V4H12.3L16.06 14.34L21.28 27.4C20.1088 27.1536 18.9167 27.0196 17.72 27C16.66 23.88 14.78 18.66 14.31 17.37L11.94 10.66C11.837 10.432 11.6522 10.2508 11.4222 10.1524C11.1921 10.0539 10.9335 10.0453 10.6974 10.1282C10.4613 10.2111 10.2649 10.3794 10.1469 10.6001C10.0289 10.8207 9.99787 11.0776 10.06 11.32L12.27 17.57V27.05C11.88 27.05 11.4 27.15 10.84 27.24C10.5748 27.2851 10.3383 27.4337 10.1827 27.6531C10.027 27.8725 9.96491 28.1448 10.01 28.41C10.0551 28.6752 10.2037 28.9117 10.4231 29.0673C10.6425 29.223 10.9148 29.2851 11.18 29.24C11.8699 29.1094 12.5684 29.0292 13.27 29C13.5352 29 13.7896 28.8946 13.9771 28.7071C14.1646 28.5196 14.27 28.2652 14.27 28V23.18C14.93 25.04 15.61 26.98 16.05 28.32C16.1171 28.5186 16.2449 28.6911 16.4154 28.8132C16.5858 28.9352 16.7904 29.0005 17 29C18.891 28.9217 20.7783 29.2244 22.55 29.89H22.6C22.7252 29.9515 22.8609 29.9888 23 30V30C23.109 29.9956 23.2168 29.9753 23.32 29.94V29.94H23.37H23.48C23.5311 29.9055 23.5781 29.8652 23.62 29.82V29.82C23.7477 29.7143 23.8444 29.5761 23.9 29.42ZM22 4V23.81L18 13.81V4H22Z" fill="white"/>
</svg>
