<svg width="934" height="934" viewBox="0 0 934 934" fill="none" xmlns="http://www.w3.org/2000/svg">
<path d="M133 501.973C133 609.036 183.453 704.267 261.797 765.387C308.12 702.335 382.756 661.397 466.984 661.397C551.212 661.397 625.851 702.34 672.171 765.387C750.515 704.272 800.968 609.027 800.968 501.973C800.968 317.52 651.448 168 466.995 168C282.541 168 133.021 317.533 133.021 501.973H133ZM588.973 466.692C588.973 534.072 534.364 588.681 466.984 588.681C399.604 588.681 344.995 534.072 344.995 466.692C344.995 399.312 399.609 344.703 466.984 344.703C534.359 344.703 588.973 399.312 588.973 466.692Z" fill="#FFF1"/>
</svg>
