<svg width="32" height="32" viewBox="0 0 32 32" fill="none" xmlns="http://www.w3.org/2000/svg">
<path d="M24.1 26H7.9C6.33603 25.9974 4.83688 25.3749 3.73099 24.269C2.6251 23.1631 2.00264 21.664 2 20.1V11.9C2.00264 10.336 2.6251 8.83688 3.73099 7.73099C4.83688 6.6251 6.33603 6.00264 7.9 6H24.1C25.664 6.00264 27.1631 6.6251 28.269 7.73099C29.3749 8.83688 29.9974 10.336 30 11.9V20.1C29.9974 21.664 29.3749 23.1631 28.269 24.269C27.1631 25.3749 25.664 25.9974 24.1 26V26ZM7.9 8C6.86647 8.00264 5.87602 8.41438 5.1452 9.1452C4.41438 9.87602 4.00264 10.8665 4 11.9V20.1C4.00264 21.1335 4.41438 22.124 5.1452 22.8548C5.87602 23.5856 6.86647 23.9974 7.9 24H24.1C25.1335 23.9974 26.124 23.5856 26.8548 22.8548C27.5856 22.124 27.9974 21.1335 28 20.1V11.9C27.9974 10.8665 27.5856 9.87602 26.8548 9.1452C26.124 8.41438 25.1335 8.00264 24.1 8H7.9Z" fill="white"/>
<path d="M13 21C12.7348 21 12.4804 20.8946 12.2929 20.7071C12.1054 20.5195 12 20.2652 12 20V12C12.0011 11.8254 12.0478 11.6542 12.1355 11.5034C12.2232 11.3525 12.3489 11.2272 12.5 11.14C12.652 11.0522 12.8245 11.006 13 11.006C13.1755 11.006 13.348 11.0522 13.5 11.14L20.5 15.14C20.6474 15.2253 20.7706 15.3469 20.8579 15.4932C20.9452 15.6395 20.9936 15.8057 20.9986 15.976C21.0036 16.1463 20.965 16.3151 20.8865 16.4663C20.808 16.6175 20.6922 16.7461 20.55 16.84L17.55 18.84C17.4416 18.9272 17.3163 18.9909 17.1819 19.027C17.0475 19.0631 16.9071 19.0707 16.7696 19.0494C16.6321 19.0281 16.5005 18.9783 16.3833 18.9033C16.2662 18.8282 16.166 18.7295 16.0891 18.6136C16.0122 18.4976 15.9604 18.3668 15.937 18.2297C15.9135 18.0925 15.919 17.952 15.953 17.8171C15.9869 17.6821 16.0487 17.5558 16.1343 17.4461C16.2198 17.3364 16.3274 17.2457 16.45 17.18L18.1 16.08L14 13.72V20C14 20.2652 13.8946 20.5195 13.7071 20.7071C13.5196 20.8946 13.2652 21 13 21Z" fill="white"/>
</svg>
