<svg width="154" height="79" viewBox="0 0 154 79" fill="none" xmlns="http://www.w3.org/2000/svg">
<g filter="url(#filter0_d_209_219)">
<rect x="54" y="36.8302" width="5" height="5" transform="rotate(-50 54 36.8302)" fill="#FA9F42"/>
<rect x="4" y="36.8302" width="5" height="5" transform="rotate(-50 4 36.8302)" fill="#FA9F42"/>
<rect x="91" y="38.8302" width="5" height="5" transform="rotate(-50 91 38.8302)" fill="#FA9F42"/>
<rect x="141" y="54.8302" width="5" height="5" transform="rotate(-50 141 54.8302)" fill="#FA9F42"/>
<rect x="84" y="17.8302" width="5" height="5" transform="rotate(-50 84 17.8302)" fill="#FA9F42"/>
<rect x="75" y="66.8302" width="5" height="5" transform="rotate(-50 75 66.8302)" fill="#FA9F42"/>
<rect x="119" y="42.1105" width="6.5" height="6.5" transform="rotate(-9.83705 119 42.1105)" fill="#FA9F42"/>
<rect x="142" y="18.1105" width="6.5" height="6.5" transform="rotate(-9.83705 142 18.1105)" fill="#FA9F42"/>
<rect x="101" y="50.1105" width="6.5" height="6.5" transform="rotate(-9.83705 101 50.1105)" fill="#FA9F42"/>
<rect x="50" y="19.1105" width="6.5" height="6.5" transform="rotate(-9.83705 50 19.1105)" fill="#FA9F42"/>
<rect x="83" y="55.1105" width="6.5" height="6.5" transform="rotate(-9.83705 83 55.1105)" fill="#FA9F42"/>
<rect x="115" y="12.1284" width="8" height="8" transform="rotate(-50 115 12.1284)" fill="#FA9F42"/>
<rect x="20" y="46.1284" width="8" height="8" transform="rotate(-50 20 46.1284)" fill="#FA9F42"/>
<rect x="75" y="31.1284" width="8" height="8" transform="rotate(-50 75 31.1284)" fill="#FA9F42"/>
<rect x="116" y="63.1284" width="8" height="8" transform="rotate(-50 116 63.1284)" fill="#FA9F42"/>
<rect x="133" y="36.1284" width="8" height="8" transform="rotate(-50 133 36.1284)" fill="#FA9F42"/>
<rect x="61" y="7.66045" width="10" height="10" transform="rotate(-50 61 7.66045)" fill="#FA9F42"/>
<rect x="9" y="19.6604" width="10" height="10" transform="rotate(-50 9 19.6604)" fill="#FA9F42"/>
<rect x="58" y="48.6604" width="10" height="10" transform="rotate(-50 58 48.6604)" fill="#FA9F42"/>
<rect x="32" y="32.6604" width="10" height="10" transform="rotate(-50 32 32.6604)" fill="#FA9F42"/>
<rect x="105" y="27.6604" width="10" height="10" transform="rotate(-50 105 27.6604)" fill="#FA9F42"/>
</g>
<defs>
<filter id="filter0_d_209_219" x="0" y="0" width="153.515" height="78.0442" filterUnits="userSpaceOnUse" color-interpolation-filters="sRGB">
<feFlood flood-opacity="0" result="BackgroundImageFix"/>
<feColorMatrix in="SourceAlpha" type="matrix" values="0 0 0 0 0 0 0 0 0 0 0 0 0 0 0 0 0 0 127 0" result="hardAlpha"/>
<feOffset dy="4"/>
<feGaussianBlur stdDeviation="2"/>
<feComposite in2="hardAlpha" operator="out"/>
<feColorMatrix type="matrix" values="0 0 0 0 0 0 0 0 0 0 0 0 0 0 0 0 0 0 0.25 0"/>
<feBlend mode="normal" in2="BackgroundImageFix" result="effect1_dropShadow_209_219"/>
<feBlend mode="normal" in="SourceGraphic" in2="effect1_dropShadow_209_219" result="shape"/>
</filter>
</defs>
</svg>
